<?xml version="1.0" encoding="utf-8"?>
<!-- Generator: Adobe Illustrator 26.3.1, SVG Export Plug-In . SVG Version: 6.00 Build 0)  -->
<svg version="1.1" id="Layer_1" xmlns="http://www.w3.org/2000/svg" xmlns:xlink="http://www.w3.org/1999/xlink" x="0px" y="0px"
	 viewBox="0 0 1000 1000" style="enable-background:new 0 0 1000 1000;" xml:space="preserve">
<style type="text/css">
	.st0{fill:#89BBFE;stroke:#272727;stroke-width:22;stroke-miterlimit:10;}
	.st1{fill:none;stroke:#272727;stroke-width:22;stroke-miterlimit:10;}
	.st2{fill:#235789;}
	.st3{fill:#FFFFFF;stroke:#272727;stroke-width:18;stroke-miterlimit:10;}
	.st4{fill:#5DACFE;}
	.st5{fill:#20507E;}
	.st6{fill:#89BBFE;}
	.st7{fill:#FFF5EA;}
</style>
<path class="st0" d="M426.9,240.7c0,0-264.8,0.1-274.2,0c-9.4-0.1-88.3-114.1-87.1-115.5c1.2-1.4,798.7-2,802.1,0
	c3.4,2,63.4,114.4,63.6,115.5c0.2,1.1-329.8,0-329.8,0"/>
<path class="st0" d="M449.5,242.8c0,0,326.8,590.1,330.6,589.9c3.8-0.2,149.7,0,157.2,0.3S601.4,240,601.4,240l-151.8-0.3"/>
<path class="st0" d="M75,826.7c0,6.8,199.7,0,206.7,0S443.8,516,445.2,512s-178.9,2.1-178.9,2.1"/>
<path class="st1" d="M75,826.7c-2.4,3.6,356.9-586,356.9-586l27.7,0.2"/>
<path class="st2" d="M584.1,229.5l-64.7,1.4l337.9,591.4h64.2C846.9,687.2,717.9,462.4,584.1,229.5z"/>
<path class="st2" d="M428.6,521.6c-24.9,0-49.3,0.3-73,1L186.7,818.1c28.9-0.4,58.8-1.1,89.7-2.2
	C327.4,731.5,375.8,630.6,428.6,521.6z"/>
<path class="st3" d="M62.5,876"/>
<polyline class="st2" points="519.4,230.9 473.3,136.3 862,135.3 916,231.5 588.7,230.9 "/>
<path class="st4" d="M85.4,135.9l387.9-1l27.3,57.1c-295.1,1.2-358.8-7.9-391.2-21.5"/>
<path class="st5" d="M862,135.3l-389.4-0.4l28,56.5c295.1,8.3,347-10.1,379.7-23L862,135.3z"/>
<polyline class="st6" points="516.2,224.2 531.5,252.2 467.1,253 449.9,222.3 "/>
<polygon class="st6" points="449,229.9 457.9,229.9 456.4,223 447.7,227.4 "/>
<rect x="78.2" y="-241.8" class="st6" width="205.1" height="205.1"/>
<rect x="307.9" y="-241.8" class="st2" width="205.1" height="205.1"/>
<rect x="529.9" y="-241.8" class="st7" width="205.1" height="205.1"/>
</svg>
