<?xml version="1.0" encoding="utf-8"?>
<!-- Generator: Adobe Illustrator 26.3.1, SVG Export Plug-In . SVG Version: 6.00 Build 0)  -->
<svg version="1.1" id="Layer_1" xmlns="http://www.w3.org/2000/svg" xmlns:xlink="http://www.w3.org/1999/xlink" x="0px" y="0px"
	 viewBox="0 0 1080 601" style="enable-background:new 0 0 1080 601;" xml:space="preserve">
<style type="text/css">
	.st0{fill:#89BBFE;stroke:#272727;stroke-width:22;stroke-miterlimit:10;}
	.st1{fill:none;stroke:#272727;stroke-width:22;stroke-miterlimit:10;}
	.st2{fill:#235789;}
	.st3{fill:#5DACFE;}
	.st4{fill:#20507E;}
	.st5{fill:#89BBFE;}
</style>
<path class="st0" d="M455.8,187.7c0,0-264.8,0.1-274.2,0c-9.4-0.1-88.3-114.1-87.1-115.5c1.2-1.4,798.7-2,802.1,0
	c3.4,2,63.4,114.4,63.6,115.5c0.2,1.1-329.8,0-329.8,0"/>
<path class="st0" d="M478.4,189.8c0,0,326.8,590.1,330.6,589.9c3.8-0.2,149.7,0,157.2,0.3S630.3,187,630.3,187l-151.8-0.3"/>
<path class="st0" d="M103.9,773.7c0,6.8,199.7,0,206.7,0S472.7,463,474.1,459s-178.9,2.1-178.9,2.1"/>
<path class="st1" d="M103.9,773.7c-2.4,3.6,356.9-586,356.9-586l27.7,0.2"/>
<path class="st2" d="M613,176.5l-64.7,1.4l337.9,591.4h64.2C875.8,634.2,746.8,409.4,613,176.5z"/>
<path class="st2" d="M457.5,468.6c-24.9,0-49.3,0.3-73,1L215.6,765.1c28.9-0.4,58.8-1.1,89.7-2.2
	C356.3,678.5,404.7,577.6,457.5,468.6z"/>
<polyline class="st2" points="548.3,177.9 502.2,83.3 890.9,82.3 944.9,178.5 617.6,177.9 "/>
<path class="st3" d="M114.3,82.9l387.9-1l27.3,57.1c-295.1,1.2-358.8-7.9-391.2-21.5"/>
<path class="st4" d="M890.9,82.3l-389.4-0.4l28,56.5c295.1,8.3,347-10.1,379.7-23L890.9,82.3z"/>
<polyline class="st5" points="545.1,171.2 560.4,199.2 496,200 478.8,169.3 "/>
<polygon class="st5" points="477.9,176.9 486.8,176.9 485.3,170 476.6,174.4 "/>
</svg>
