<?xml version="1.0" encoding="utf-8"?>
<!-- Generator: Adobe Illustrator 26.3.1, SVG Export Plug-In . SVG Version: 6.00 Build 0)  -->
<svg version="1.1" id="Layer_1" xmlns="http://www.w3.org/2000/svg" xmlns:xlink="http://www.w3.org/1999/xlink" x="0px" y="0px"
	 viewBox="0 0 1080 1080" style="enable-background:new 0 0 1080 1080;" xml:space="preserve">
<style type="text/css">
	.st0{fill:none;stroke:#235789;stroke-width:34;stroke-miterlimit:10;}
	.st1{fill:none;stroke:#235789;stroke-width:34;stroke-linecap:round;stroke-miterlimit:10;}
</style>
<path class="st0" d="M1033.1,596.7H46.6c-8.7,0-15.7-7-15.7-15.7V258.5c0-8.7,7-15.7,15.7-15.7H1033c8.7,0,15.7,7,15.7,15.7V581
	C1048.8,589.7,1041.7,596.7,1033.1,596.7z"/>
<path class="st0" d="M174.8,596.7l26.6-68.6c0,0,4.4-15.1,41.1-15.1s610.2,0,610.2,0s23.5,2.2,31.3,25.5s21.1,58.2,21.1,58.2"/>
<line class="st1" x1="121" y1="332.3" x2="214.2" y2="332.3"/>
<path class="st1" d="M432.9,684.3"/>
<path class="st1" d="M323.8,676c-2.3,50.2-13.6,96.4-37.7,136.7"/>
<path class="st1" d="M432.9,684.3c0.2,55.5-6.2,106.3-30.1,145"/>
<line class="st1" x1="541.3" y1="681.9" x2="541.3" y2="829.3"/>
<path class="st1" d="M761.3,684.3c2.3,50.2,13.6,96.4,37.7,136.7"/>
<path class="st1" d="M652.3,692.5c-0.2,55.5,6.2,106.3,30.1,145"/>
</svg>
