<?xml version="1.0" encoding="utf-8"?>
<!-- Generator: Adobe Illustrator 26.3.1, SVG Export Plug-In . SVG Version: 6.00 Build 0)  -->
<svg version="1.1" id="Layer_1" xmlns="http://www.w3.org/2000/svg" xmlns:xlink="http://www.w3.org/1999/xlink" x="0px" y="0px"
	 viewBox="0 0 1080 1080" style="enable-background:new 0 0 1080 1080;" xml:space="preserve">
<style type="text/css">
	.st0{fill:none;stroke:#FFF5EA;stroke-width:34;stroke-miterlimit:10;}
	.st1{fill:none;stroke:#FFF5EA;stroke-width:34;stroke-linecap:round;stroke-miterlimit:10;}
</style>
<path class="st0" d="M1034.5,667.5H48c-8.7,0-15.7-7-15.7-15.7V329.3c0-8.7,7-15.7,15.7-15.7h986.4c8.7,0,15.7,7,15.7,15.7v322.5
	C1050.2,660.5,1043.1,667.5,1034.5,667.5z"/>
<path class="st0" d="M176.2,667.5l26.6-68.6c0,0,4.4-15.1,41.1-15.1s610.2,0,610.2,0s23.5,2.2,31.3,25.5
	c7.8,23.3,21.1,58.2,21.1,58.2"/>
<line class="st1" x1="122.4" y1="403.1" x2="215.6" y2="403.1"/>
<path class="st1" d="M434.3,755.1"/>
<path class="st1" d="M325.2,746.8c-2.3,50.2-13.6,96.4-37.7,136.7"/>
<path class="st1" d="M434.3,755.1c0.2,55.5-6.2,106.3-30.1,145"/>
<line class="st1" x1="542.7" y1="752.7" x2="542.7" y2="900.1"/>
<path class="st1" d="M762.7,755.1c2.3,50.2,13.6,96.4,37.7,136.7"/>
<path class="st1" d="M653.7,763.3c-0.2,55.5,6.2,106.3,30.1,145"/>
</svg>
